<svg xmlns="http://www.w3.org/2000/svg" viewBox="0 0 512 512" role="img" aria-label="База Пятилетка">
  <defs>
    <linearGradient id="gold" x1="0" y1="0" x2="1" y2="1">
      <stop offset="0%" stop-color="#fbbf24"/>
      <stop offset="100%" stop-color="#d97706"/>
    </linearGradient>
  </defs>
  <rect width="512" height="512" rx="120" fill="#0f172a"/>
  <circle cx="256" cy="256" r="185" fill="none" stroke="url(#gold)" stroke-width="18"/>
  <circle cx="256" cy="256" r="155" fill="#111827"/>
  <path d="M182 130h170v58H241l-10 58c10-5 23-8 36-8 61 0 99 40 99 97 0 62-45 107-117 107-52 0-94-21-116-56l53-34c14 21 35 32 62 32 33 0 54-20 54-47 0-28-19-45-49-45-21 0-37 7-51 20l-52-13 32-169z" fill="url(#gold)"/>
</svg>